<mxfile host="app.diagrams.net" modified="2022-10-29T10:01:02.881Z" agent="5.0 (Windows NT 10.0; Win64; x64) AppleWebKit/537.36 (KHTML, like Gecko) Chrome/107.0.0.0 Safari/537.36" etag="7XglqwxJTCd5oRlWmhAm" version="20.5.1" type="github">
  <diagram id="ReJldHMSf0ZmyCNE-Pxb" name="Page-1">
    <mxGraphModel dx="1220" dy="1144" grid="1" gridSize="10" guides="1" tooltips="1" connect="1" arrows="1" fold="1" page="1" pageScale="1" pageWidth="850" pageHeight="1100" math="0" shadow="0">
      <root>
        <mxCell id="0" />
        <mxCell id="1" parent="0" />
        <mxCell id="qm7pDkhE9iFn0ysm4PVn-7" value="旺店通销售数据" style="shape=document;whiteSpace=wrap;html=1;boundedLbl=1;fontFamily=宋体;" vertex="1" parent="1">
          <mxGeometry x="523" y="20" width="120" height="80" as="geometry" />
        </mxCell>
        <mxCell id="qm7pDkhE9iFn0ysm4PVn-8" value="" style="edgeStyle=none;rounded=0;orthogonalLoop=1;jettySize=auto;html=1;fontFamily=宋体;" edge="1" parent="1" source="qm7pDkhE9iFn0ysm4PVn-9" target="qm7pDkhE9iFn0ysm4PVn-12">
          <mxGeometry relative="1" as="geometry" />
        </mxCell>
        <mxCell id="qm7pDkhE9iFn0ysm4PVn-9" value="查询库存详情" style="whiteSpace=wrap;html=1;fontFamily=宋体;" vertex="1" parent="1">
          <mxGeometry x="523" y="140" width="120" height="60" as="geometry" />
        </mxCell>
        <mxCell id="qm7pDkhE9iFn0ysm4PVn-10" value="" style="rounded=0;orthogonalLoop=1;jettySize=auto;html=1;fontFamily=宋体;" edge="1" parent="1" source="qm7pDkhE9iFn0ysm4PVn-7" target="qm7pDkhE9iFn0ysm4PVn-9">
          <mxGeometry relative="1" as="geometry">
            <mxPoint x="593" y="110" as="sourcePoint" />
            <mxPoint x="593" y="160" as="targetPoint" />
          </mxGeometry>
        </mxCell>
        <mxCell id="qm7pDkhE9iFn0ysm4PVn-11" value="" style="edgeStyle=none;rounded=0;orthogonalLoop=1;jettySize=auto;html=1;fontFamily=宋体;" edge="1" parent="1" source="qm7pDkhE9iFn0ysm4PVn-12" target="qm7pDkhE9iFn0ysm4PVn-13">
          <mxGeometry relative="1" as="geometry" />
        </mxCell>
        <mxCell id="qm7pDkhE9iFn0ysm4PVn-12" value="选择部分字段数据" style="whiteSpace=wrap;html=1;fontFamily=宋体;" vertex="1" parent="1">
          <mxGeometry x="523" y="250" width="120" height="60" as="geometry" />
        </mxCell>
        <mxCell id="qm7pDkhE9iFn0ysm4PVn-13" value="数据计算" style="whiteSpace=wrap;html=1;fontFamily=宋体;" vertex="1" parent="1">
          <mxGeometry x="523" y="350" width="120" height="60" as="geometry" />
        </mxCell>
        <mxCell id="qm7pDkhE9iFn0ysm4PVn-14" value="可发库存金额" style="shape=document;whiteSpace=wrap;html=1;boundedLbl=1;fontFamily=宋体;" vertex="1" parent="1">
          <mxGeometry x="398" y="460" width="120" height="80" as="geometry" />
        </mxCell>
        <mxCell id="qm7pDkhE9iFn0ysm4PVn-15" value="90天出货库存金额" style="shape=document;whiteSpace=wrap;html=1;boundedLbl=1;fontFamily=宋体;" vertex="1" parent="1">
          <mxGeometry x="653" y="460" width="120" height="80" as="geometry" />
        </mxCell>
        <mxCell id="qm7pDkhE9iFn0ysm4PVn-16" value="" style="endArrow=classic;html=1;rounded=0;fontFamily=宋体;" edge="1" parent="1" source="qm7pDkhE9iFn0ysm4PVn-13" target="qm7pDkhE9iFn0ysm4PVn-14">
          <mxGeometry width="50" height="50" relative="1" as="geometry">
            <mxPoint x="383" y="400" as="sourcePoint" />
            <mxPoint x="433" y="350" as="targetPoint" />
          </mxGeometry>
        </mxCell>
        <mxCell id="qm7pDkhE9iFn0ysm4PVn-17" value="" style="endArrow=classic;html=1;rounded=0;fontFamily=宋体;" edge="1" parent="1" source="qm7pDkhE9iFn0ysm4PVn-13" target="qm7pDkhE9iFn0ysm4PVn-15">
          <mxGeometry width="50" height="50" relative="1" as="geometry">
            <mxPoint x="558" y="420" as="sourcePoint" />
            <mxPoint x="499.66666666666674" y="470" as="targetPoint" />
          </mxGeometry>
        </mxCell>
        <mxCell id="qm7pDkhE9iFn0ysm4PVn-18" value="" style="endArrow=classic;html=1;rounded=0;fontFamily=宋体;" edge="1" parent="1" source="qm7pDkhE9iFn0ysm4PVn-14" target="qm7pDkhE9iFn0ysm4PVn-20">
          <mxGeometry width="50" height="50" relative="1" as="geometry">
            <mxPoint x="491.75" y="480" as="sourcePoint" />
            <mxPoint x="583" y="680" as="targetPoint" />
          </mxGeometry>
        </mxCell>
        <mxCell id="qm7pDkhE9iFn0ysm4PVn-19" value="" style="endArrow=classic;html=1;rounded=0;fontFamily=宋体;" edge="1" parent="1" source="qm7pDkhE9iFn0ysm4PVn-15" target="qm7pDkhE9iFn0ysm4PVn-20">
          <mxGeometry width="50" height="50" relative="1" as="geometry">
            <mxPoint x="495.7777777777778" y="550" as="sourcePoint" />
            <mxPoint x="583" y="670" as="targetPoint" />
          </mxGeometry>
        </mxCell>
        <mxCell id="qm7pDkhE9iFn0ysm4PVn-20" value="高库存金额" style="rounded=0;whiteSpace=wrap;html=1;fontFamily=宋体;" vertex="1" parent="1">
          <mxGeometry x="523" y="590" width="120" height="60" as="geometry" />
        </mxCell>
        <mxCell id="qm7pDkhE9iFn0ysm4PVn-24" value="" style="edgeStyle=none;rounded=0;orthogonalLoop=1;jettySize=auto;html=1;fontFamily=宋体;" edge="1" parent="1" target="qm7pDkhE9iFn0ysm4PVn-26">
          <mxGeometry relative="1" as="geometry">
            <mxPoint x="460" y="880" as="sourcePoint" />
          </mxGeometry>
        </mxCell>
        <mxCell id="qm7pDkhE9iFn0ysm4PVn-25" value="核算评定&lt;br&gt;" style="rounded=0;whiteSpace=wrap;html=1;fontFamily=宋体;" vertex="1" parent="1">
          <mxGeometry x="393" y="820" width="130" height="60" as="geometry" />
        </mxCell>
        <mxCell id="qm7pDkhE9iFn0ysm4PVn-26" value="&lt;span style=&quot;text-align: center;&quot;&gt;&amp;nbsp; &amp;nbsp; 高库存金额占比&lt;/span&gt;" style="html=1;dashed=0;whitespace=wrap;shape=mxgraph.dfd.dataStoreID;align=left;spacingLeft=3;points=[[0,0],[0.5,0],[1,0],[0,0.5],[1,0.5],[0,1],[0.5,1],[1,1]];fontFamily=宋体;" vertex="1" parent="1">
          <mxGeometry x="390" y="930" width="140" height="30" as="geometry" />
        </mxCell>
        <mxCell id="qm7pDkhE9iFn0ysm4PVn-27" value="项目组员工" style="ellipse;whiteSpace=wrap;html=1;fontFamily=宋体;" vertex="1" parent="1">
          <mxGeometry x="610" y="905" width="120" height="80" as="geometry" />
        </mxCell>
        <mxCell id="qm7pDkhE9iFn0ysm4PVn-28" value="" style="edgeStyle=none;rounded=0;orthogonalLoop=1;jettySize=auto;html=1;fontFamily=宋体;" edge="1" parent="1" source="qm7pDkhE9iFn0ysm4PVn-27" target="qm7pDkhE9iFn0ysm4PVn-26">
          <mxGeometry relative="1" as="geometry">
            <mxPoint x="470" y="890" as="sourcePoint" />
            <mxPoint x="470" y="940" as="targetPoint" />
          </mxGeometry>
        </mxCell>
        <mxCell id="qm7pDkhE9iFn0ysm4PVn-40" value="" style="endArrow=classic;html=1;rounded=0;fontFamily=宋体;" edge="1" parent="1" source="qm7pDkhE9iFn0ysm4PVn-14" target="qm7pDkhE9iFn0ysm4PVn-41">
          <mxGeometry width="50" height="50" relative="1" as="geometry">
            <mxPoint x="509.66666666666674" y="550" as="sourcePoint" />
            <mxPoint x="460" y="660" as="targetPoint" />
          </mxGeometry>
        </mxCell>
        <mxCell id="qm7pDkhE9iFn0ysm4PVn-41" value="高库存金额占比" style="rounded=0;whiteSpace=wrap;html=1;fontFamily=宋体;" vertex="1" parent="1">
          <mxGeometry x="398" y="680" width="120" height="60" as="geometry" />
        </mxCell>
        <mxCell id="qm7pDkhE9iFn0ysm4PVn-42" value="" style="endArrow=classic;html=1;rounded=0;fontFamily=宋体;" edge="1" parent="1" source="qm7pDkhE9iFn0ysm4PVn-20" target="qm7pDkhE9iFn0ysm4PVn-41">
          <mxGeometry width="50" height="50" relative="1" as="geometry">
            <mxPoint x="509.66666666666674" y="550" as="sourcePoint" />
            <mxPoint x="561.75" y="600" as="targetPoint" />
          </mxGeometry>
        </mxCell>
        <mxCell id="qm7pDkhE9iFn0ysm4PVn-44" value="" style="endArrow=classic;html=1;rounded=0;fontFamily=宋体;" edge="1" parent="1" source="qm7pDkhE9iFn0ysm4PVn-41" target="qm7pDkhE9iFn0ysm4PVn-25">
          <mxGeometry width="50" height="50" relative="1" as="geometry">
            <mxPoint x="468" y="550" as="sourcePoint" />
            <mxPoint x="468" y="690" as="targetPoint" />
          </mxGeometry>
        </mxCell>
      </root>
    </mxGraphModel>
  </diagram>
</mxfile>
